<mxfile host="app.diagrams.net" agent="Mozilla/5.0 (Windows NT 10.0; Win64; x64) AppleWebKit/537.36 (KHTML, like Gecko) Chrome/122.0.0.0 Safari/537.36" version="24.8.6">
  <diagram name="Trang-1" id="eBUL-0FaE13NmYVlg88k">
    <mxGraphModel grid="1" page="1" gridSize="10" guides="1" tooltips="1" connect="1" arrows="1" fold="1" pageScale="1" pageWidth="827" pageHeight="1169" math="0" shadow="0">
      <root>
        <mxCell id="0" />
        <mxCell id="1" parent="0" />
        <mxCell id="opmzYthAMUltDvlIpJui-3" value="" style="edgeStyle=orthogonalEdgeStyle;rounded=0;orthogonalLoop=1;jettySize=auto;html=1;" edge="1" parent="1" source="opmzYthAMUltDvlIpJui-1" target="opmzYthAMUltDvlIpJui-2">
          <mxGeometry relative="1" as="geometry" />
        </mxCell>
        <mxCell id="opmzYthAMUltDvlIpJui-1" value="Bắt Đầu" style="ellipse;whiteSpace=wrap;html=1;" vertex="1" parent="1">
          <mxGeometry x="354" y="30" width="120" height="80" as="geometry" />
        </mxCell>
        <mxCell id="opmzYthAMUltDvlIpJui-15" style="edgeStyle=orthogonalEdgeStyle;rounded=0;orthogonalLoop=1;jettySize=auto;html=1;entryX=0.5;entryY=0;entryDx=0;entryDy=0;" edge="1" parent="1" source="opmzYthAMUltDvlIpJui-2" target="opmzYthAMUltDvlIpJui-4">
          <mxGeometry relative="1" as="geometry" />
        </mxCell>
        <mxCell id="opmzYthAMUltDvlIpJui-16" style="edgeStyle=orthogonalEdgeStyle;rounded=0;orthogonalLoop=1;jettySize=auto;html=1;" edge="1" parent="1" source="opmzYthAMUltDvlIpJui-2" target="opmzYthAMUltDvlIpJui-5">
          <mxGeometry relative="1" as="geometry" />
        </mxCell>
        <mxCell id="opmzYthAMUltDvlIpJui-17" style="edgeStyle=orthogonalEdgeStyle;rounded=0;orthogonalLoop=1;jettySize=auto;html=1;" edge="1" parent="1" source="opmzYthAMUltDvlIpJui-2" target="opmzYthAMUltDvlIpJui-6">
          <mxGeometry relative="1" as="geometry" />
        </mxCell>
        <mxCell id="opmzYthAMUltDvlIpJui-2" value="Nhập Điểm a" style="shape=parallelogram;perimeter=parallelogramPerimeter;whiteSpace=wrap;html=1;fixedSize=1;" vertex="1" parent="1">
          <mxGeometry x="354" y="200" width="120" height="60" as="geometry" />
        </mxCell>
        <mxCell id="opmzYthAMUltDvlIpJui-20" style="edgeStyle=orthogonalEdgeStyle;rounded=0;orthogonalLoop=1;jettySize=auto;html=1;" edge="1" parent="1" source="opmzYthAMUltDvlIpJui-4" target="opmzYthAMUltDvlIpJui-10">
          <mxGeometry relative="1" as="geometry" />
        </mxCell>
        <mxCell id="opmzYthAMUltDvlIpJui-4" value="a &amp;lt; 4" style="shape=parallelogram;perimeter=parallelogramPerimeter;whiteSpace=wrap;html=1;fixedSize=1;" vertex="1" parent="1">
          <mxGeometry y="330" width="120" height="60" as="geometry" />
        </mxCell>
        <mxCell id="opmzYthAMUltDvlIpJui-21" style="edgeStyle=orthogonalEdgeStyle;rounded=0;orthogonalLoop=1;jettySize=auto;html=1;entryX=0.5;entryY=0;entryDx=0;entryDy=0;" edge="1" parent="1" source="opmzYthAMUltDvlIpJui-5" target="opmzYthAMUltDvlIpJui-11">
          <mxGeometry relative="1" as="geometry" />
        </mxCell>
        <mxCell id="opmzYthAMUltDvlIpJui-5" value="4 &amp;lt;= a &amp;lt;=6" style="shape=parallelogram;perimeter=parallelogramPerimeter;whiteSpace=wrap;html=1;fixedSize=1;" vertex="1" parent="1">
          <mxGeometry x="160" y="330" width="120" height="60" as="geometry" />
        </mxCell>
        <mxCell id="opmzYthAMUltDvlIpJui-22" style="edgeStyle=orthogonalEdgeStyle;rounded=0;orthogonalLoop=1;jettySize=auto;html=1;entryX=0.5;entryY=0;entryDx=0;entryDy=0;" edge="1" parent="1" source="opmzYthAMUltDvlIpJui-6" target="opmzYthAMUltDvlIpJui-12">
          <mxGeometry relative="1" as="geometry" />
        </mxCell>
        <mxCell id="opmzYthAMUltDvlIpJui-6" value="6&amp;lt;a&amp;lt;=8" style="shape=parallelogram;perimeter=parallelogramPerimeter;whiteSpace=wrap;html=1;fixedSize=1;" vertex="1" parent="1">
          <mxGeometry x="320" y="330" width="120" height="60" as="geometry" />
        </mxCell>
        <mxCell id="opmzYthAMUltDvlIpJui-23" style="edgeStyle=orthogonalEdgeStyle;rounded=0;orthogonalLoop=1;jettySize=auto;html=1;entryX=0.5;entryY=0;entryDx=0;entryDy=0;" edge="1" parent="1" source="opmzYthAMUltDvlIpJui-7" target="opmzYthAMUltDvlIpJui-13">
          <mxGeometry relative="1" as="geometry" />
        </mxCell>
        <mxCell id="opmzYthAMUltDvlIpJui-7" value="8&amp;lt;a&amp;lt;=9" style="shape=parallelogram;perimeter=parallelogramPerimeter;whiteSpace=wrap;html=1;fixedSize=1;" vertex="1" parent="1">
          <mxGeometry x="510" y="330" width="120" height="60" as="geometry" />
        </mxCell>
        <mxCell id="opmzYthAMUltDvlIpJui-24" style="edgeStyle=orthogonalEdgeStyle;rounded=0;orthogonalLoop=1;jettySize=auto;html=1;entryX=0.5;entryY=0;entryDx=0;entryDy=0;" edge="1" parent="1" source="opmzYthAMUltDvlIpJui-8" target="opmzYthAMUltDvlIpJui-14">
          <mxGeometry relative="1" as="geometry" />
        </mxCell>
        <mxCell id="opmzYthAMUltDvlIpJui-8" value="9&amp;lt;a&amp;lt;=10" style="shape=parallelogram;perimeter=parallelogramPerimeter;whiteSpace=wrap;html=1;fixedSize=1;" vertex="1" parent="1">
          <mxGeometry x="680" y="330" width="120" height="60" as="geometry" />
        </mxCell>
        <mxCell id="opmzYthAMUltDvlIpJui-27" style="edgeStyle=orthogonalEdgeStyle;rounded=0;orthogonalLoop=1;jettySize=auto;html=1;entryX=0;entryY=0.5;entryDx=0;entryDy=0;" edge="1" parent="1" source="opmzYthAMUltDvlIpJui-10" target="opmzYthAMUltDvlIpJui-25">
          <mxGeometry relative="1" as="geometry">
            <Array as="points">
              <mxPoint x="60" y="720" />
            </Array>
          </mxGeometry>
        </mxCell>
        <mxCell id="opmzYthAMUltDvlIpJui-10" value="Không đạt" style="shape=parallelogram;perimeter=parallelogramPerimeter;whiteSpace=wrap;html=1;fixedSize=1;" vertex="1" parent="1">
          <mxGeometry y="490" width="120" height="60" as="geometry" />
        </mxCell>
        <mxCell id="opmzYthAMUltDvlIpJui-28" style="edgeStyle=orthogonalEdgeStyle;rounded=0;orthogonalLoop=1;jettySize=auto;html=1;entryX=0;entryY=0.5;entryDx=0;entryDy=0;" edge="1" parent="1" source="opmzYthAMUltDvlIpJui-11" target="opmzYthAMUltDvlIpJui-25">
          <mxGeometry relative="1" as="geometry">
            <Array as="points">
              <mxPoint x="220" y="720" />
            </Array>
          </mxGeometry>
        </mxCell>
        <mxCell id="opmzYthAMUltDvlIpJui-11" value="Trung bình" style="shape=parallelogram;perimeter=parallelogramPerimeter;whiteSpace=wrap;html=1;fixedSize=1;" vertex="1" parent="1">
          <mxGeometry x="160" y="490" width="120" height="60" as="geometry" />
        </mxCell>
        <mxCell id="opmzYthAMUltDvlIpJui-29" style="edgeStyle=orthogonalEdgeStyle;rounded=0;orthogonalLoop=1;jettySize=auto;html=1;entryX=0.5;entryY=0;entryDx=0;entryDy=0;" edge="1" parent="1" source="opmzYthAMUltDvlIpJui-12" target="opmzYthAMUltDvlIpJui-25">
          <mxGeometry relative="1" as="geometry" />
        </mxCell>
        <mxCell id="opmzYthAMUltDvlIpJui-12" value="Khá" style="shape=parallelogram;perimeter=parallelogramPerimeter;whiteSpace=wrap;html=1;fixedSize=1;" vertex="1" parent="1">
          <mxGeometry x="320" y="490" width="120" height="60" as="geometry" />
        </mxCell>
        <mxCell id="opmzYthAMUltDvlIpJui-30" style="edgeStyle=orthogonalEdgeStyle;rounded=0;orthogonalLoop=1;jettySize=auto;html=1;entryX=1;entryY=0.5;entryDx=0;entryDy=0;" edge="1" parent="1" source="opmzYthAMUltDvlIpJui-13" target="opmzYthAMUltDvlIpJui-25">
          <mxGeometry relative="1" as="geometry">
            <Array as="points">
              <mxPoint x="570" y="720" />
            </Array>
          </mxGeometry>
        </mxCell>
        <mxCell id="opmzYthAMUltDvlIpJui-13" value="giỏi" style="shape=parallelogram;perimeter=parallelogramPerimeter;whiteSpace=wrap;html=1;fixedSize=1;" vertex="1" parent="1">
          <mxGeometry x="510" y="490" width="120" height="60" as="geometry" />
        </mxCell>
        <mxCell id="opmzYthAMUltDvlIpJui-31" style="edgeStyle=orthogonalEdgeStyle;rounded=0;orthogonalLoop=1;jettySize=auto;html=1;entryX=1;entryY=0.5;entryDx=0;entryDy=0;" edge="1" parent="1" source="opmzYthAMUltDvlIpJui-14" target="opmzYthAMUltDvlIpJui-25">
          <mxGeometry relative="1" as="geometry">
            <Array as="points">
              <mxPoint x="740" y="720" />
            </Array>
          </mxGeometry>
        </mxCell>
        <mxCell id="opmzYthAMUltDvlIpJui-14" value="Xuất xắc" style="shape=parallelogram;perimeter=parallelogramPerimeter;whiteSpace=wrap;html=1;fixedSize=1;" vertex="1" parent="1">
          <mxGeometry x="680" y="490" width="120" height="60" as="geometry" />
        </mxCell>
        <mxCell id="opmzYthAMUltDvlIpJui-18" style="edgeStyle=orthogonalEdgeStyle;rounded=0;orthogonalLoop=1;jettySize=auto;html=1;entryX=0.593;entryY=-0.056;entryDx=0;entryDy=0;entryPerimeter=0;" edge="1" parent="1" source="opmzYthAMUltDvlIpJui-2" target="opmzYthAMUltDvlIpJui-7">
          <mxGeometry relative="1" as="geometry" />
        </mxCell>
        <mxCell id="opmzYthAMUltDvlIpJui-19" style="edgeStyle=orthogonalEdgeStyle;rounded=0;orthogonalLoop=1;jettySize=auto;html=1;entryX=0.6;entryY=0.069;entryDx=0;entryDy=0;entryPerimeter=0;" edge="1" parent="1" source="opmzYthAMUltDvlIpJui-2" target="opmzYthAMUltDvlIpJui-8">
          <mxGeometry relative="1" as="geometry" />
        </mxCell>
        <mxCell id="opmzYthAMUltDvlIpJui-25" value="End" style="ellipse;whiteSpace=wrap;html=1;" vertex="1" parent="1">
          <mxGeometry x="320" y="680" width="120" height="80" as="geometry" />
        </mxCell>
      </root>
    </mxGraphModel>
  </diagram>
</mxfile>
